<svg width="39" height="44" viewBox="0 0 39 44" fill="none" xmlns="http://www.w3.org/2000/svg">
<g clip-path="url(#clip0_618_3003)">
<path d="M18.2356 33.9004C24.4634 34.4482 29.9497 29.7256 30.4895 23.3522C31.0294 16.9788 26.4183 11.3681 20.1905 10.8203C13.9627 10.2725 8.47644 14.9951 7.9366 21.3685C7.39676 27.7419 12.0078 33.3526 18.2356 33.9004Z" fill="black" stroke="black" stroke-width="0.218174"/>
<path d="M24.1878 10.1607C21.8452 12.284 21.6566 15.9651 23.7667 18.3826C25.8768 20.8002 29.4864 21.0388 31.8291 18.9155C34.1717 16.7923 34.3602 13.1112 32.2502 10.6937C30.1401 8.27608 26.5304 8.03749 24.1878 10.1607Z" fill="white" stroke="white" stroke-width="0.167384"/>
<path d="M0.953125 22.0044C0.953125 26.9052 2.89666 31.6053 6.35618 35.0707C9.81569 38.5361 14.5078 40.4829 19.4003 40.4829C24.2928 40.4829 28.9849 38.5361 32.4444 35.0707C35.9039 31.6053 37.8475 26.9052 37.8475 22.0044C37.8475 17.1036 35.9039 12.4036 32.4444 8.93816C28.9849 5.47277 24.2928 3.52594 19.4003 3.52594C14.5078 3.52594 9.81569 5.47277 6.35618 8.93816C2.89666 12.4036 0.953125 17.1036 0.953125 22.0044ZM8.33204 22.0044C8.33204 19.064 9.49816 16.244 11.5739 14.1648C13.6496 12.0856 16.4648 10.9175 19.4003 10.9175C22.3358 10.9175 25.151 12.0856 27.2267 14.1648C29.3024 16.244 30.4686 19.064 30.4686 22.0044C30.4686 24.9449 29.3024 27.7649 27.2267 29.8441C25.151 31.9233 22.3358 33.0914 19.4003 33.0914C16.4648 33.0914 13.6496 31.9233 11.5739 29.8441C9.49816 27.7649 8.33204 24.9449 8.33204 22.0044Z" fill="white" stroke="white" stroke-width="0.076"/>
</g>
<defs>
<clipPath id="clip0_618_3003">
<rect width="38" height="44" fill="white" transform="translate(0.5)"/>
</clipPath>
</defs>
</svg>
